<svg class="img-fluid" role="img" aria-label="Ilustrácia ceruzka a papier" id="DigitalnaGrafika" xmlns="http://www.w3.org/2000/svg" viewBox="0 0 300 209">
  <style>.svg2st0{fill:url(#SVG2ID_1_)}.svg2st1{fill:url(#SVG2ID_2_)}.svg2st2{fill:url(#SVG2ID_3_)}.svg2st3{fill:url(#SVG2ID_4_)}.svg2st4{fill:url(#SVG2ID_5_)}</style>
  <style class="darkreader darkreader--sync" media="screen"></style>
  <linearGradient id="SVG2ID_1_" gradientUnits="userSpaceOnUse" x1="87.9624" y1="167.5381" x2="274.5511" y2="167.5381">
    <stop offset="0" stop-color="#4554A4" data-darkreader-inline-stopcolor="" style="--darkreader-inline-stopcolor:#374383;"></stop>
    <stop offset="1" stop-color="#E61F62" data-darkreader-inline-stopcolor="" style="--darkreader-inline-stopcolor:#b4144a;"></stop>
  </linearGradient>
  <path class="svg2st0" d="M257.36 187.86H105.15c-4.57 0-8.89-1.79-12.14-5.05-4.67-4.67-5.04-10.47-5.05-12.14-.02-2.26.44-5.43 2.7-7.66 3.72-3.66 11.86-3.9 19.09 2.02 5.18 2.91 10.7 5.11 16.42 6.56 8.37 2.12 18.06 2.54 27.3 1.2 8.63-1.26 13.83-3.53 21.71-6.98 2.05-.9 4.37-1.91 6.94-2.99 12.17-5.1 25.09-9.5 38.4-13.1 6.64-1.84 13.48-2.67 20.33-2.46 5.08.15 10.16.88 15.09 2.16 3.48.92 9.98 3.46 14.5 10.09 2.21 3.24 3.63 7.07 4.1 11.06l.01.11c0 9.47-7.71 17.18-17.19 17.18zM97.91 162.24c-2.5 0-4.62.75-5.96 2.07-1.81 1.78-2.17 4.44-2.16 6.35 0 1.5.34 6.68 4.51 10.86 2.91 2.91 6.76 4.51 10.85 4.51h152.21c8.45 0 15.34-6.86 15.37-15.31-.44-3.68-1.75-7.21-3.79-10.2-4.19-6.15-10.23-8.5-13.46-9.36-4.8-1.24-9.74-1.95-14.68-2.1-6.66-.2-13.32.61-19.79 2.4H221c-13.23 3.58-26.08 7.96-38.18 13.03-2.56 1.07-4.87 2.08-6.92 2.98-8.01 3.51-13.3 5.82-22.17 7.11-9.46 1.38-19.41.94-28.01-1.23-5.9-1.49-11.6-3.77-16.94-6.77l-.13-.09c-3.6-2.97-7.49-4.25-10.74-4.25z"></path>
  <linearGradient id="SVG2ID_2_" gradientUnits="userSpaceOnUse" x1="188.8542" y1="93.1563" x2="274.5511" y2="93.1563">
    <stop offset="0" stop-color="#4554A4" data-darkreader-inline-stopcolor="" style="--darkreader-inline-stopcolor:#374383;"></stop>
    <stop offset="1" stop-color="#E61F62" data-darkreader-inline-stopcolor="" style="--darkreader-inline-stopcolor:#b4144a;"></stop>
  </linearGradient>
  <path class="svg2st1" d="M266.35 101.36h-69.29c-4.52 0-8.21-3.68-8.21-8.21s3.68-8.21 8.21-8.21h69.29c4.52 0 8.21 3.68 8.21 8.21s-3.69 8.21-8.21 8.21zm-69.29-14.59c-3.52 0-6.38 2.86-6.38 6.38s2.86 6.38 6.38 6.38h69.29c3.52 0 6.38-2.86 6.38-6.38s-2.86-6.38-6.38-6.38h-69.29z"></path>
  <linearGradient id="SVG2ID_3_" gradientUnits="userSpaceOnUse" x1="188.8542" y1="115.0364" x2="274.5511" y2="115.0364">
    <stop offset="0" stop-color="#4554A4" data-darkreader-inline-stopcolor="" style="--darkreader-inline-stopcolor:#374383;"></stop>
    <stop offset="1" stop-color="#E61F62" data-darkreader-inline-stopcolor="" style="--darkreader-inline-stopcolor:#b4144a;"></stop>
  </linearGradient>
  <path class="svg2st2" d="M266.35 123.24h-69.29c-4.52 0-8.21-3.68-8.21-8.21s3.68-8.21 8.21-8.21h69.29c4.52 0 8.21 3.68 8.21 8.21s-3.69 8.21-8.21 8.21zm-69.29-14.59c-3.52 0-6.38 2.86-6.38 6.38s2.86 6.38 6.38 6.38h69.29c3.52 0 6.38-2.86 6.38-6.38s-2.86-6.38-6.38-6.38h-69.29z"></path>
  <linearGradient id="SVG2ID_4_" gradientUnits="userSpaceOnUse" x1="5.3249" y1="78.3394" x2="160.7951" y2="78.3394">
    <stop offset="0" stop-color="#4554A4" data-darkreader-inline-stopcolor="" style="--darkreader-inline-stopcolor:#374383;"></stop>
    <stop offset="1" stop-color="#E61F62" data-darkreader-inline-stopcolor="" style="--darkreader-inline-stopcolor:#b4144a;"></stop>
  </linearGradient>
  <path class="svg2st3" d="M119.35 150.18L32.81 74.11 71.58 30l86.54 76.07 2.67 41.44-41.44 2.67zM35.24 73.95l84.71 74.46 39.01-2.51-2.51-39.01-84.71-74.46-36.5 41.52zm88.44 63.52l-10.28-9.04 22.4-25.48 10.28 9.04.74 11.56-12.38.8.8 12.38-11.56.74zm-7.85-9.19l8.45 7.43 9.13-.59-.8-12.38 12.38-.8-.59-9.13-8.45-7.43-20.12 22.9zm-7.49-6.33c-.78 0-1.48-.27-2.08-.79L50.48 72.12c-.66-.58-1.02-1.32-1.07-2.19-.06-.94.16-1.7.64-2.25.49-.55 1.21-.87 2.15-.93.87-.06 1.66.21 2.31.78l55.78 49.03c.66.58 1.02 1.32 1.07 2.19.06.94-.15 1.7-.64 2.25s-1.21.87-2.15.93c-.08.02-.15.02-.23.02zM52.43 68.47h-.12c-.47.03-.79.15-.97.34-.17.2-.25.54-.22 1 .03.42.18.74.49 1.01l55.78 49.03c.31.27.64.38 1.06.36.47-.03.8-.15.97-.34.17-.2.25-.54.22-1-.03-.42-.18-.74-.49-1.01L53.37 68.83c-.28-.24-.58-.36-.94-.36zm-24.91.99L9.88 53.86c-2.76-2.29-4.29-5.35-4.52-9.06-.23-3.64.88-6.89 3.32-9.66l21.16-24.18c2.52-2.72 5.6-4.21 9.16-4.44l.06.86-.06-.85c3.64-.23 6.85.85 9.56 3.23l17.73 15.59-38.77 44.11zM39.98 8.22c-.29 0-.58.01-.87.03-3.11.2-5.8 1.5-7.99 3.87L9.97 36.28c-2.16 2.45-3.1 5.2-2.9 8.41.21 3.26 1.49 5.83 3.93 7.86l16.36 14.47 36.5-41.52-16.44-14.45c-2.16-1.9-4.6-2.83-7.44-2.83z"></path>
  <linearGradient id="SVG2ID_5_" gradientUnits="userSpaceOnUse" x1="69.7295" y1="133.3653" x2="294" y2="133.3653">
    <stop offset="0" stop-color="#4554A4" data-darkreader-inline-stopcolor="" style="--darkreader-inline-stopcolor:#374383;"></stop>
    <stop offset="1" stop-color="#E61F62" data-darkreader-inline-stopcolor="" style="--darkreader-inline-stopcolor:#b4144a;"></stop>
  </linearGradient>
  <path class="svg2st4" d="M273.49 63.07H111.45l2.03 1.82h160.01c10.3 0 18.69 8.38 18.69 18.68v99.57c0 10.3-8.38 18.69-18.69 18.69H90.24c-10.3 0-18.69-8.38-18.69-18.69v-72.48l-1.82-1.63v74.12c0 11.31 9.2 20.51 20.51 20.51h183.25c11.31 0 20.51-9.2 20.51-20.51V83.58c0-11.31-9.2-20.51-20.51-20.51z"></path>
</svg>