<svg id="_x34_7ff7b08-9e71-484e-a755-db3cb553fc7d" xmlns="http://www.w3.org/2000/svg" viewBox="165 105.5 841.9 302.5">
  <style>.vr4st0{fill:url(#SVGID4_1_)}.vr4st1{fill:#fff}.vr4st2{fill:#e61f62}</style>
  <style class="darkreader darkreader--sync" media="screen"></style>
  <g id="_x37_a0312ec-db48-4ca3-a8c6-f598cc1ce745">
    <linearGradient id="SVGID4_1_" gradientUnits="userSpaceOnUse" x1="330.315" y1="107.04" x2="330.315" y2="409.52" gradientTransform="matrix(1 0 0 -1 0 515.04)">
      <stop offset="0" stop-color="#4554A4" data-darkreader-inline-stopcolor="" style="--darkreader-inline-stopcolor:#374383;"></stop>
      <stop offset="1" stop-color="#E62062" data-darkreader-inline-stopcolor="" style="--darkreader-inline-stopcolor:#b41449;"></stop>
    </linearGradient>
    <path class="vr4st0" d="M494.6 408l-36-85.3-17.3 21.4-28.1-22.6v-87.7l-66.5-21.3v-25.6h27.6l-44-81.4-44.1 81.4h27.6v25.6l-66.6 21.4c0 29.2 0 58.4-.1 87.6L219 344.1l-17.3-21.4L166 408l90.9-16.7-17.3-21.5 24.2-19.3 66.5 30.8 66.2-30.8 24.2 19.3-17.3 21.5 91.2 16.7zm-109.9-79.5L330.4 352l-54.8-23.5v-76.7l54.7-17.9 54.4 17.9v76.7z"></path>
  </g>
  <path id="_x35_a965caf-ec4b-42c4-9a7b-38edaa335fdd" class="vr4st1" d="M510 323.3v-8.7c0-2.5 1.3-3.8 3.8-3.8H526c2.5 0 3.8 1.3 3.8 3.8v7c0 16.3 8 24.4 24.1 24.4h23.9c16.1 0 24.1-8.3 24.1-25v-9.2c0-13-10.8-21.5-32.3-25.5-9-1.6-18.1-3.5-27.1-5.7-8.7-2-16.7-6.4-23-12.6-6.3-6.2-9.5-14.8-9.5-25.6v-13.2c0-12.5 3.6-22.3 10.7-29.4s17-10.7 29.4-10.7h30.1c12.3 0 22.1 3.6 29.3 10.7 7.2 7.1 10.9 17 10.9 29.4v6.8c0 2.7-1.2 4.1-3.5 4.1h-12.5c-2.3 0-3.5-1.4-3.5-4.1v-4.9c0-16.5-8-24.7-24.1-24.7h-23.1c-16.1 0-24.1 8.6-24.1 25.8V243c0 9.2 6.1 15.6 18.2 19 5.4 1.5 11.4 2.8 17.9 3.9 6.6 1.2 13.2 2.7 19.7 4.6 6.2 1.8 12.2 4.1 18 7.1 5.5 2.9 10.1 7.3 13.2 12.8 3.3 5.7 5 12.6 5 20.8v12.2c0 12.5-3.6 22.3-10.8 29.4s-17 10.7-29.3 10.7h-31.1c-12.3 0-22.1-3.6-29.3-10.7-7.4-7.2-11.1-17-11.1-29.5z"></path>
  <path id="e4d13bbb-e978-485b-a897-af351416dfb1" class="vr4st1" d="M648.2 359.6V228.8c0-2.5 1.2-3.8 3.5-3.8h12.5c2.5 0 3.8 1.3 3.8 3.8v130.7c0 2.5-1.3 3.8-3.8 3.8H652c-2.5.1-3.8-1.2-3.8-3.7z"></path>
  <path id="a4c28649-2c52-4bb2-8a61-5d542d285c4e" class="vr4st1" d="M877.6 363.4h-57.5c-12.5 0-22.3-3.5-29.4-10.6-7.1-7.1-10.7-16.9-10.7-29.6v-58c0-12.7 3.6-22.5 10.7-29.6s17-10.6 29.4-10.6h22.8c12.5 0 22.2 3.5 29.3 10.6 7 7.1 10.6 16.9 10.6 29.6v34.4c0 2.7-1.3 4.1-3.8 4.1h-76.8c-1.8 0-2.7.8-2.7 2.4v16.6c0 15.7 7.6 23.6 22.8 23.6h55.3c2.5 0 3.8 1.3 3.8 3.8v9.8c0 2.4-1.3 3.5-3.8 3.5zm-75.4-74h58.6c1.3.2 2.5-.7 2.7-2v-21.6c0-15.5-7.6-23.3-22.8-23.3h-18.4c-15.2 0-22.8 7.8-22.8 23.3v20.9c-.2 1.3.7 2.5 2 2.7h.7z"></path>
  <path id="f6956b5f-d38d-4ab8-9574-c8bc830d7d12" class="vr4st1" d="M760.4 346.1h-10.6c-15.9 0-23.8-7.7-23.8-23.1v-78.1c0-1.6 1-2.4 3-2.4h28.8c2.7 0 4.1-1.2 4.1-3.5v-10c0-2.5-1.4-3.8-4.1-3.8H729c-2 0-3-.8-3-2.4v-30c0-2.5-1.2-3.8-3.5-3.8H710c-2.3 0-3.5 1.3-3.5 3.8v30c0 1.6-.9 2.4-2.7 2.4h-15c-2.5 0-3.8 1.3-3.8 3.8v10c0 2.4 1.3 3.5 3.8 3.5h14.9c1.8 0 2.7.8 2.7 2.4v78.9c0 12.5 3.7 22.2 11.1 29.2s17.4 10.4 29.8 10.4h13c2.7 0 4.1-1.2 4.1-3.5v-10c.1-2.5-1.3-3.8-4-3.8z"></path>
  <path id="b10cd13f-145c-4c88-844d-46fe96a32583" class="vr4st1" d="M1003.4 189h-12.5c-2.3 0-3.5 1.3-3.5 3.8v46.8h-1.1c-4.5-9.6-13.8-14.4-27.9-14.4h-16c-12.3 0-21.9 3.5-28.8 10.6-6.9 7.1-10.3 16.9-10.3 29.6v58c0 12.7 3.4 22.5 10.3 29.6 6.9 7 16.5 10.6 28.8 10.6h16c14.1 0 23.4-4.8 27.9-14.4h1.1v10.6c0 2.5 1.2 3.8 3.5 3.8h12.5c2.3 0 3.5-1.3 3.5-3.8v-167c0-2.6-1.2-3.8-3.5-3.8zm-16 132.1c0 8-2.2 14.1-6.5 18.4-4.3 4.3-10.6 6.5-18.7 6.5h-16.5c-15 0-22.5-7.9-22.5-23.6V266c0-15.7 7.5-23.6 22.5-23.6h16.5c8.1 0 14.4 2.2 18.7 6.5 4.3 4.3 6.5 10.5 6.5 18.4v53.8z"></path>
  <circle id="_x38_e3cbb5e-50a9-46ad-b755-e95fdb4e2d56" class="vr4st2" cx="658.1" cy="188.4" r="27.5"></circle>
</svg>