<svg class="img-fluid" role="img" aria-label="Ilustrácia fotoaparát a mikrofón" id="MultimedialnaProdukcia" xmlns="http://www.w3.org/2000/svg" viewBox="0 0 300 202">
  <style>.svg3st0{fill:url(#SVG3ID_1_)}.svg3st1{fill:url(#SVG3ID_2_)}.svg3st2{fill:url(#SVG3ID_3_)}.svg3st3{fill:url(#SVG3ID_4_)}.svg3st4{fill:url(#SVG3ID_5_)}</style>
  <style class="darkreader darkreader--sync" media="screen"></style>
  <linearGradient id="SVG3ID_1_" gradientUnits="userSpaceOnUse" x1="186.8134" y1="119.6865" x2="294.5049" y2="119.6865">
    <stop offset="0" stop-color="#4554A4" data-darkreader-inline-stopcolor="" style="--darkreader-inline-stopcolor:#374383;"></stop>
    <stop offset="1" stop-color="#E61F62" data-darkreader-inline-stopcolor="" style="--darkreader-inline-stopcolor:#b4144a;"></stop>
  </linearGradient>
  <path class="svg3st0" d="M269.99 197h-58.67c-1.87 0-3.5-.69-4.86-2.05-1.36-1.36-2.05-3-2.05-4.86 0-1.87.69-3.51 2.05-4.86 1.36-1.36 2.99-2.05 4.86-2.05h22.42v-10.13c-13.06-1.65-24.21-7.51-33.14-17.42-9.15-10.14-13.79-22.24-13.79-35.95v-11.73c0-1.87.69-3.51 2.05-4.86 1.36-1.36 2.99-2.05 4.86-2.05s3.5.69 4.86 2.05c1.36 1.36 2.05 3 2.05 4.86v11.73c0 10.97 3.95 20.48 11.75 28.28 7.79 7.8 17.31 11.75 28.28 11.75 10.97 0 20.48-3.95 28.28-11.75 7.8-7.8 11.75-17.31 11.75-28.28v-11.73c0-1.87.69-3.51 2.05-4.86 1.36-1.36 3-2.05 4.86-2.05 1.87 0 3.5.69 4.86 2.05 1.36 1.36 2.05 3 2.05 4.86v11.73c0 13.71-4.64 25.8-13.79 35.95-8.94 9.91-20.08 15.76-33.14 17.42v10.13H270c1.87 0 3.5.69 4.86 2.05 1.36 1.36 2.05 2.99 2.05 4.86s-.69 3.5-2.05 4.86c-1.36 1.36-3 2.05-4.87 2.05zm-58.66-11.73c-1.31 0-2.42.47-3.39 1.44-.97.97-1.44 2.07-1.44 3.39 0 1.31.47 2.42 1.44 3.39.97.97 2.07 1.44 3.39 1.44H270c1.31 0 2.42-.47 3.39-1.44.97-.97 1.43-2.07 1.43-3.39 0-1.31-.47-2.42-1.44-3.39-.97-.97-2.07-1.44-3.39-1.44h-24.51v-14.08l.93-.1c12.94-1.43 23.96-7.1 32.75-16.85 8.79-9.75 13.25-21.37 13.25-34.55v-11.73c0-1.31-.47-2.42-1.44-3.39-.97-.97-2.07-1.44-3.39-1.44-1.31 0-2.42.47-3.39 1.44-.97.97-1.44 2.07-1.44 3.39v11.73c0 11.54-4.16 21.55-12.36 29.75s-18.21 12.36-29.75 12.36-21.55-4.16-29.75-12.36-12.36-18.21-12.36-29.75v-11.73c0-1.31-.47-2.42-1.44-3.39-.97-.97-2.07-1.44-3.39-1.44-1.31 0-2.42.47-3.39 1.44-.97.97-1.44 2.07-1.44 3.39v11.73c0 13.18 4.46 24.8 13.25 34.55 8.8 9.75 19.81 15.42 32.75 16.85l.93.1v14.08h-24.47zm29.33-35.2c-8.32 0-15.54-3-21.46-8.92-5.92-5.92-8.92-13.14-8.92-21.46V72.75c0-8.32 3-15.53 8.92-21.46 5.92-5.92 13.14-8.92 21.46-8.92 8.31 0 15.53 3 21.46 8.92 5.92 5.92 8.92 13.14 8.92 21.46v46.94c0 8.32-3 15.54-8.92 21.46-5.93 5.91-13.14 8.92-21.46 8.92zm0-105.61c-7.74 0-14.46 2.8-19.98 8.31-5.51 5.51-8.31 12.24-8.31 19.98v46.94c0 7.74 2.8 14.47 8.31 19.98 5.51 5.51 12.24 8.31 19.98 8.31s14.46-2.8 19.98-8.31c5.51-5.52 8.31-12.24 8.31-19.98V72.75c0-7.74-2.8-14.46-8.31-19.98-5.52-5.51-12.24-8.31-19.98-8.31z"></path>
  <linearGradient id="SVG3ID_2_" gradientUnits="userSpaceOnUse" x1="5.0955" y1="101.4644" x2="219.1855" y2="101.4644">
    <stop offset="0" stop-color="#4554A4" data-darkreader-inline-stopcolor="" style="--darkreader-inline-stopcolor:#374383;"></stop>
    <stop offset="1" stop-color="#E61F62" data-darkreader-inline-stopcolor="" style="--darkreader-inline-stopcolor:#b4144a;"></stop>
  </linearGradient>
  <path class="svg3st1" d="M203.68 193.06l.02-.02c-2.76.91-5.7 1.37-8.82 1.37H35.38c-7.61 0-14.2-2.73-19.59-8.12-5.39-5.39-8.12-11.98-8.12-19.59V65.22c0-7.61 2.73-14.2 8.12-19.59 5.39-5.39 11.98-8.12 19.59-8.12h26.27l6.09-16.23c1.33-3.44 3.83-6.46 7.41-8.98 3.57-2.51 7.27-3.79 10.98-3.79h58c3.71 0 7.41 1.27 10.98 3.79 3.58 2.52 6.08 5.54 7.41 8.97l6.09 16.24h26.27c7.61 0 14.2 2.73 19.59 8.12 1.06 1.06 2.01 2.16 2.86 3.31.67-.67 1.56-1.54 1.86-1.82-.87-1.14-1.83-2.25-2.89-3.31-5.89-5.89-13.09-8.87-21.42-8.87H170.4l-5.47-14.58c-1.52-3.92-4.33-7.34-8.33-10.16-4.02-2.82-8.21-4.26-12.47-4.26h-58c-4.25 0-8.45 1.43-12.47 4.26-4.01 2.82-6.81 6.24-8.34 10.17l-5.46 14.57H35.38c-8.32 0-15.53 2.99-21.42 8.87C8.08 49.69 5.1 56.89 5.1 65.22v101.5c0 8.32 2.99 15.53 8.87 21.42 5.89 5.89 13.09 8.87 21.42 8.87h159.49c3.78 0 7.33-.62 10.63-1.85-1.18-.99-1.83-2.1-1.83-2.1z"></path>
  <linearGradient id="SVG3ID_3_" gradientUnits="userSpaceOnUse" x1="71.7147" y1="114.9858" x2="162.8884" y2="114.9858">
    <stop offset="0" stop-color="#4554A4" data-darkreader-inline-stopcolor="" style="--darkreader-inline-stopcolor:#374383;"></stop>
    <stop offset="1" stop-color="#E61F62" data-darkreader-inline-stopcolor="" style="--darkreader-inline-stopcolor:#b4144a;"></stop>
  </linearGradient>
  <path class="svg3st2" d="M117.3 160.57c-25.14 0-45.59-20.45-45.59-45.59S92.16 69.4 117.3 69.4s45.59 20.45 45.59 45.59-20.45 45.58-45.59 45.58zm0-88.59c-23.71 0-43.01 19.29-43.01 43.01S93.58 158 117.3 158s43.01-19.29 43.01-43.01-19.29-43.01-43.01-43.01z"></path>
  <linearGradient id="SVG3ID_4_" gradientUnits="userSpaceOnUse" x1="81.1652" y1="114.986" x2="153.4371" y2="114.986">
    <stop offset="0" stop-color="#4554A4" data-darkreader-inline-stopcolor="" style="--darkreader-inline-stopcolor:#374383;"></stop>
    <stop offset="1" stop-color="#E61F62" data-darkreader-inline-stopcolor="" style="--darkreader-inline-stopcolor:#b4144a;"></stop>
  </linearGradient>
  <path class="svg3st3" d="M117.3 151.12c-19.93 0-36.14-16.21-36.14-36.14s16.21-36.14 36.14-36.14c19.92 0 36.14 16.21 36.14 36.14s-16.21 36.14-36.14 36.14zm0-69.69c-18.5 0-33.56 15.05-33.56 33.56s15.05 33.56 33.56 33.56c18.5 0 33.56-15.05 33.56-33.56S135.8 81.43 117.3 81.43z"></path>
  <linearGradient id="SVG3ID_5_" gradientUnits="userSpaceOnUse" x1="23.9944" y1="54.0229" x2="53.0237" y2="54.0229">
    <stop offset="0" stop-color="#4554A4" data-darkreader-inline-stopcolor="" style="--darkreader-inline-stopcolor:#374383;"></stop>
    <stop offset="1" stop-color="#E61F62" data-darkreader-inline-stopcolor="" style="--darkreader-inline-stopcolor:#b4144a;"></stop>
  </linearGradient>
  <path class="svg3st4" d="M47.32 59.73H29.7c-3.14 0-5.7-2.56-5.7-5.7s2.56-5.7 5.7-5.7h17.62c3.14 0 5.7 2.56 5.7 5.7s-2.55 5.7-5.7 5.7zM29.7 50.39c-2 0-3.63 1.63-3.63 3.63s1.63 3.63 3.63 3.63h17.62c2 0 3.63-1.63 3.63-3.63s-1.63-3.63-3.63-3.63H29.7z"></path>
</svg>