<svg class="img-fluid" role="img" aria-label="Ilustrácia počítač a mobil" id="WeboveAplikacie" xmlns="http://www.w3.org/2000/svg" viewBox="0 0 300 235">
  <style>.svg1st0{fill:url(#SVG1ID_1_)}.svg1st1{fill:url(#SVG1ID_2_)}.svg1st2{fill:url(#SVG1ID_3_)}.svg1st3{fill:url(#SVG1ID_4_)}.svg1st4{fill:url(#SVG1ID_5_)}.svg1st5{fill:url(#SVG1ID_6_)}</style>
  <style class="darkreader darkreader--sync" media="screen"></style>
  <linearGradient id="SVG1ID_1_" gradientUnits="userSpaceOnUse" x1="5" y1="159.8886" x2="87.7892" y2="159.8886">
    <stop offset="0" stop-color="#4554A4" data-darkreader-inline-stopcolor="" style="--darkreader-inline-stopcolor:#374383;"></stop>
    <stop offset="1" stop-color="#E61F62" data-darkreader-inline-stopcolor="" style="--darkreader-inline-stopcolor:#b4144a;"></stop>
  </linearGradient>
  <path class="svg1st0" d="M9.28 223.98C6.44 221.14 5 217.72 5 213.83V105.95c0-3.89 1.44-7.3 4.28-10.15 2.84-2.84 6.25-4.28 10.14-4.28h53.94c3.89 0 7.31 1.44 10.14 4.28 2.84 2.84 4.28 6.25 4.28 10.14v107.88c0 3.89-1.44 7.31-4.28 10.15-2.84 2.84-6.25 4.28-10.14 4.28H19.42c-3.89 0-7.3-1.44-10.14-4.27zM19.42 93.4c-3.42 0-6.31 1.22-8.82 3.73-2.51 2.51-3.73 5.4-3.73 8.82v107.88c0 3.42 1.22 6.31 3.73 8.82 2.51 2.51 5.39 3.73 8.82 3.73h53.94c3.43 0 6.31-1.22 8.82-3.73 2.51-2.51 3.73-5.39 3.73-8.82V105.95c0-3.42-1.22-6.31-3.73-8.82-2.51-2.51-5.39-3.73-8.82-3.73H19.42z"></path>
  <linearGradient id="SVG1ID_2_" gradientUnits="userSpaceOnUse" x1="15.1145" y1="159.3821" x2="77.6741" y2="159.3821">
    <stop offset="0" stop-color="#4554A4" data-darkreader-inline-stopcolor="" style="--darkreader-inline-stopcolor:#374383;"></stop>
    <stop offset="1" stop-color="#E61F62" data-darkreader-inline-stopcolor="" style="--darkreader-inline-stopcolor:#b4144a;"></stop>
  </linearGradient>
  <path class="svg1st1" d="M16.32 209.61c-.8-1.01-1.21-2.2-1.21-3.57v-93.33c0-1.36.4-2.56 1.21-3.57.85-1.07 1.9-1.61 3.1-1.61h53.94c1.21 0 2.25.54 3.1 1.61.8 1 1.21 2.2 1.21 3.57v93.33c0 1.37-.41 2.57-1.2 3.57-.85 1.07-1.89 1.61-3.1 1.61H19.42c-1.2.01-2.25-.54-3.1-1.61zm3.1-100.2c-.62 0-1.14.29-1.64.9-.54.68-.8 1.46-.8 2.4v93.33c0 .94.26 1.72.8 2.4.49.62 1.01.9 1.64.9h53.94c.63 0 1.15-.29 1.64-.91.54-.67.8-1.45.8-2.4V112.7c0-.94-.26-1.73-.8-2.4-.49-.62-1.01-.91-1.63-.91H19.42z"></path>
  <linearGradient id="SVG1ID_3_" gradientUnits="userSpaceOnUse" x1="35.3423" y1="101.8442" x2="57.4463" y2="101.8442">
    <stop offset="0" stop-color="#4554A4" data-darkreader-inline-stopcolor="" style="--darkreader-inline-stopcolor:#374383;"></stop>
    <stop offset="1" stop-color="#E61F62" data-darkreader-inline-stopcolor="" style="--darkreader-inline-stopcolor:#b4144a;"></stop>
  </linearGradient>
  <path class="svg1st2" d="M35.34 101.84c0-1.64.98-2.62 2.63-2.62h16.86c1.64 0 2.62.98 2.62 2.62 0 1.64-.98 2.62-2.62 2.62H37.97c-1.65.01-2.63-.97-2.63-2.62zm2.63-.74c-.6 0-.75.15-.75.75 0 .61.14.75.75.75h16.86c.61 0 .75-.14.75-.75s-.14-.75-.75-.75H37.97z"></path>
  <linearGradient id="SVG1ID_4_" gradientUnits="userSpaceOnUse" x1="41.1746" y1="217.9764" x2="51.6146" y2="217.9764">
    <stop offset="0" stop-color="#4554A4" data-darkreader-inline-stopcolor="" style="--darkreader-inline-stopcolor:#374383;"></stop>
    <stop offset="1" stop-color="#E61F62" data-darkreader-inline-stopcolor="" style="--darkreader-inline-stopcolor:#b4144a;"></stop>
  </linearGradient>
  <path class="svg1st3" d="M42.71 221.66c-1.02-1.02-1.53-2.26-1.53-3.69 0-1.43.52-2.67 1.53-3.69 1.02-1.02 2.26-1.53 3.69-1.53 1.43 0 2.67.52 3.69 1.53 1.02 1.02 1.53 2.26 1.53 3.69 0 1.43-.52 2.67-1.53 3.69-1.02 1.02-2.26 1.53-3.69 1.53-1.44.01-2.68-.51-3.69-1.53zm1.32-6.04c-.66.66-.98 1.44-.98 2.36 0 .93.32 1.7.98 2.36.66.66 1.43.98 2.36.98.93 0 1.7-.32 2.36-.98.66-.66.98-1.43.98-2.36 0-.93-.32-1.7-.98-2.36-.66-.66-1.43-.98-2.36-.98-.92-.01-1.69.31-2.36.98z"></path>
  <linearGradient id="SVG1ID_5_" gradientUnits="userSpaceOnUse" x1="57.4132" y1="96.9192" x2="278.1639" y2="96.9192">
    <stop offset="0" stop-color="#4554A4" data-darkreader-inline-stopcolor="" style="--darkreader-inline-stopcolor:#374383;"></stop>
    <stop offset="1" stop-color="#E61F62" data-darkreader-inline-stopcolor="" style="--darkreader-inline-stopcolor:#b4144a;"></stop>
  </linearGradient>
  <path class="svg1st4" d="M57.41 89.47V29.53c0-1.62.49-3.04 1.46-4.24 1.02-1.25 2.26-1.89 3.69-1.89h210.45c1.43 0 2.67.63 3.69 1.89.97 1.19 1.46 2.62 1.46 4.24v134.78c0 1.62-.49 3.05-1.46 4.24-1.01 1.25-2.25 1.89-3.69 1.89H90.54v-1.88h182.47c.85 0 1.58-.39 2.23-1.19.7-.86 1.04-1.86 1.04-3.05V29.53c0-1.19-.34-2.19-1.04-3.05-.65-.8-1.38-1.19-2.23-1.19H62.56c-.85 0-1.58.39-2.23 1.19-.7.86-1.04 1.86-1.04 3.05v59.94h-1.88z"></path>
  <linearGradient id="SVG1ID_6_" gradientUnits="userSpaceOnUse" x1="40.5814" y1="116.942" x2="295" y2="116.942">
    <stop offset="0" stop-color="#4554A4" data-darkreader-inline-stopcolor="" style="--darkreader-inline-stopcolor:#374383;"></stop>
    <stop offset="1" stop-color="#E61F62" data-darkreader-inline-stopcolor="" style="--darkreader-inline-stopcolor:#b4144a;"></stop>
  </linearGradient>
  <path class="svg1st5" d="M47.04 13.03c4.29-4.28 9.51-6.46 15.53-6.46h210.45c6.02 0 11.24 2.17 15.53 6.46 4.28 4.28 6.46 9.51 6.46 15.53v143.11c0 6.02-2.17 11.25-6.46 15.53-4.28 4.28-9.51 6.46-15.53 6.46h-70.6c.12 2.91.8 5.92 2.02 8.97 1.38 3.45 2.78 6.52 4.16 9.11 1.49 2.79 2.21 4.83 2.21 6.23 0 2.53-.93 4.74-2.77 6.58-1.84 1.84-4.05 2.77-6.58 2.77h-67.35c-2.53 0-4.74-.93-6.58-2.77-1.84-1.84-2.77-4.06-2.77-6.58 0-1.31.72-3.32 2.21-6.16 1.39-2.65 2.79-5.76 4.17-9.25 1.22-3.08 1.9-6.07 2.02-8.91H90.54v-1.88h44.52v.94c0 3.35-.73 6.9-2.17 10.54-1.4 3.55-2.83 6.72-4.25 9.43-1.65 3.15-2 4.61-2 5.29 0 2.04.73 3.76 2.22 5.25 1.5 1.5 3.22 2.22 5.26 2.22h67.35c2.04 0 3.76-.73 5.25-2.22 1.5-1.5 2.22-3.22 2.22-5.26 0-.73-.35-2.26-1.99-5.35-1.42-2.66-2.85-5.79-4.25-9.3-1.44-3.6-2.17-7.17-2.17-10.61v-.94h72.49c5.5 0 10.28-1.99 14.2-5.91s5.91-8.7 5.91-14.2V28.55c0-5.5-1.99-10.28-5.91-14.2s-8.7-5.91-14.2-5.91H62.56c-5.5 0-10.28 1.99-14.2 5.91s-5.91 8.7-5.91 14.2v60.92h-1.88V28.55c.01-6.01 2.18-11.24 6.47-15.52z"></path>
</svg>